<!DOCTYPE svg PUBLIC "-//W3C//DTD SVG 1.1//EN" "http://www.w3.org/Graphics/SVG/1.1/DTD/svg11.dtd">
<!-- Uploaded to: SVG Repo, www.svgrepo.com, Transformed by: SVG Repo Mixer Tools -->
<svg fill="#28ff82" version="1.1" id="Capa_1" xmlns="http://www.w3.org/2000/svg" xmlns:xlink="http://www.w3.org/1999/xlink" width="800px" height="800px" viewBox="0 0 46.42 46.42" xml:space="preserve" stroke="#28ff82">
<g id="SVGRepo_bgCarrier" stroke-width="0"/>
<g id="SVGRepo_tracerCarrier" stroke-linecap="round" stroke-linejoin="round"/>
<g id="SVGRepo_iconCarrier"> <g> <path d="M46.09,41.291c-0.428-0.611-1.046-0.775-1.414-0.874l-0.097-0.026c-0.496-0.137-0.995-0.264-1.494-0.39 c-0.364-0.094-0.729-0.186-1.093-0.282c-3.782-1.008-7.029-2.397-9.932-4.254c-2.471-1.58-4.903-3.521-7.621-6.082l1.08-1.75 c1-1.615,1.998-3.229,2.979-4.855c0.374-0.62,0.728-1.256,1.067-1.871c0.296-0.534,0.592-1.068,0.902-1.594 c0.342-0.576,0.797-1.089,1.278-1.632c0.513-0.576,1.041-1.171,1.47-1.886c0.33-0.548,0.424-1.148,0.275-1.735 c-0.338-1.339-1.82-2.221-2.904-2.865c-0.18-0.107-0.343-0.203-0.478-0.29c-0.597-0.384-1.228-0.579-1.877-0.579 c-0.625,0-1.247,0.181-1.853,0.537c-0.891,0.526-1.897,0.828-2.678,1.032c-1.504,0.395-3.058,0.655-4.74,0.795 c0.856-1.804,1.683-3.51,2.809-5.069c0.075-0.104,0.145-0.213,0.208-0.325c0.571-1.017,0.457-2.083-0.313-2.922 c-0.864-0.943-1.986-1.673-3.334-2.17c-0.271-0.1-0.512-0.148-0.736-0.148c-0.376,0-0.719,0.141-0.966,0.396 c-0.395,0.407-0.425,0.953-0.413,1.328c0.067,2.119-0.761,4.322-1.562,6.453l-0.072,0.199c-2.332,6.21-5.929,12.013-10.128,16.341 c-0.293,0.303-0.54,0.617-0.778,0.926l-0.125,0.16c-0.161,0.205-0.224,0.409-0.261,0.532l-0.226,0.585l0.418,0.491l0.043,0.046 l0.035,0.038l0.497,0.533l0.659-0.312c0.074-0.035,0.148-0.068,0.223-0.101c0.188-0.083,0.401-0.179,0.613-0.3 c2.317-1.34,4.411-3.137,6.553-5.631c0.602,0.638,1.292,1.182,1.96,1.709c0.54,0.427,1.05,0.83,1.501,1.266 c0.87,0.843,1.768,1.802,2.676,2.857c-0.025,0.03-0.051,0.062-0.076,0.092c-0.407,0.488-0.827,0.994-1.257,1.468 c-1.64,1.81-3.616,3.524-6.04,5.245c-2.53,1.796-5.301,3.643-8.426,4.992c-0.344,0.146-0.635,0.332-0.952,0.539 c-0.243,0.16-0.37,0.363-0.455,0.498c-0.019,0.031-0.041,0.066-0.069,0.104L0,43.864l1.648,0.223 c0.074,0.005,0.139,0.018,0.198,0.027C1.99,44.14,2.152,44.17,2.338,44.17c0.041,0,0.081-0.001,0.122-0.004 c0.565-0.04,1.133-0.08,1.705-0.169c5.873-0.907,11.47-4.405,17.607-11.004c0.763,0.735,1.531,1.471,2.299,2.203 c1.435,1.369,2.917,2.785,4.341,4.203c0.196,0.195,0.393,0.396,0.589,0.594c1.13,1.146,2.298,2.33,3.761,3.164 c1.422,0.812,3.106,1.207,5.15,1.207c0.583,0,1.188-0.032,1.846-0.098c0.291-0.027,1.744-0.307,3.025-0.591 c2.833-0.628,3.167-0.858,3.396-1.358l0.24-0.521L46.09,41.291z M23.674,21.274c-0.893,1.721-1.887,3.401-2.958,5.004 c-0.9-0.834-2.428-2.388-2.851-2.842c-0.174-0.187-0.341-0.381-0.506-0.571c-0.781-0.902-1.662-1.92-3.029-1.998 c1.144-1.65,2.102-3.291,2.874-4.673c0.533,0.158,1.091,0.235,1.694,0.235c0.972,0,1.905-0.202,2.807-0.397 c0.399-0.086,0.798-0.173,1.2-0.24l0.215-0.037c0.455-0.08,1.143-0.2,1.755-0.2c0.037,0,0.896,0.003,0.922,0.237 c0.146,1.336-0.84,3.13-1.632,4.571C23.989,20.684,23.822,20.989,23.674,21.274z"/> </g> </g>
</svg>